<svg xmlns="http://www.w3.org/2000/svg" viewBox="0 0 16 16"><path d="M14.817 16H1.182C.529 16 0 15.486 0 14.854V1.146C0 .513.529 0 1.182 0h13.635C15.471 0 16 .513 16 1.146v13.708c0 .632-.529 1.146-1.183 1.146zM2.433 13.393H4.85V6.169H2.433v7.224zM3.657 2.686c-.826 0-1.367.539-1.367 1.248 0 .694.525 1.248 1.336 1.248h.016c.842 0 1.367-.554 1.367-1.248-.016-.709-.525-1.248-1.352-1.248zm9.907 6.565c0-2.219-1.192-3.252-2.782-3.252-1.283 0-1.857.701-2.178 1.193V6.169H6.187c.032.677 0 7.224 0 7.224h2.417V9.359c0-.216.015-.432.079-.586.175-.432.573-.878 1.24-.878.875 0 1.224.662 1.224 1.633v3.865h2.417V9.251zM8.588 7.217l.016-.025v.025h-.016z"/></svg>