<svg xmlns="http://www.w3.org/2000/svg"><symbol id="icon-facebook" viewBox="0 0 8 18"><path d="M8 5.829H5.276V3.96c0-.701.444-.865.757-.865h1.923V.011L5.308 0C2.369 0 1.7 2.3 1.7 3.773v2.056H0v3.178h1.7V18h3.576V9.007h2.412L8 5.829z"/></symbol><symbol id="icon-linkedin" viewBox="0 0 16 16"><path d="M14.817 16H1.182C.529 16 0 15.486 0 14.854V1.146C0 .513.529 0 1.182 0h13.635C15.471 0 16 .513 16 1.146v13.708c0 .632-.529 1.146-1.183 1.146zM2.433 13.393H4.85V6.169H2.433v7.224zM3.657 2.686c-.826 0-1.367.539-1.367 1.248 0 .694.525 1.248 1.336 1.248h.016c.842 0 1.367-.554 1.367-1.248-.016-.709-.525-1.248-1.352-1.248zm9.907 6.565c0-2.219-1.192-3.252-2.782-3.252-1.283 0-1.857.701-2.178 1.193V6.169H6.187c.032.677 0 7.224 0 7.224h2.417V9.359c0-.216.015-.432.079-.586.175-.432.573-.878 1.24-.878.875 0 1.224.662 1.224 1.633v3.865h2.417V9.251zM8.588 7.217l.016-.025v.025h-.016z"/></symbol><symbol id="icon-twitter" viewBox="0 0 20 14"><path d="M15.998 2.283c-.013-.007-.025-.021-.038-.033a3.64 3.64 0 00-2.637-.939l-.031-.068c.006-.006.012-.006.018-.006.917-.199 1.459-.403 1.621-.625.057-.179-.011-.278-.211-.303A5.517 5.517 0 0013.454.6c.48-.291.667-.494.561-.6-.474.012-.985.242-1.521.693.199-.322.274-.495.224-.526-.255.167-.48.347-.673.538-.406.427-.73.822-.979 1.182l-.012.03c-.642.983-1.091 1.972-1.36 2.981l-.099.075-.019.017a5.038 5.038 0 00-1.402-1.151 17.066 17.066 0 00-2.307-1.155c-.967-.47-1.946-.86-2.937-1.162-.006 1.045.536 1.879 1.615 2.485v.019a3.616 3.616 0 00-1.104.155c.069.97.798 1.638 2.182 2.009l-.006.018c-.542-.03-.991.149-1.34.52.455.841 1.259 1.243 2.425 1.212-.231.111-.411.234-.53.371a.738.738 0 00-.212.742c.249.427.698.624 1.359.594l.038.043-.019.018c-1.141 1.114-2.519 1.614-4.134 1.51l-.025.012c-.984-.007-2.038-.451-3.179-1.342 1.147 1.558 2.668 2.683 4.551 3.389 2.157.674 4.315.723 6.465.147h.038c2.088-.569 3.859-1.737 5.317-3.505.674-.928 1.098-1.811 1.266-2.659 1.091.037 1.877-.26 2.363-.89l-.012-.019c-.362.123-1.073.087-2.127-.117v-.112c0-.006 0-.006.007 0 1.154-.124 1.833-.475 2.051-1.058a3.399 3.399 0 01-2.382.026c-.143-1.027-.654-1.961-1.539-2.807z"/></symbol></svg>